<?xml version="1.0" encoding="utf-8"?>
<!-- Svg Vector Icons : http://www.onlinewebfonts.com/icon -->
<!DOCTYPE svg PUBLIC "-//W3C//DTD SVG 1.1//EN" "http://www.w3.org/Graphics/SVG/1.1/DTD/svg11.dtd">
<svg version="1.1" xmlns="http://www.w3.org/2000/svg" xmlns:xlink="http://www.w3.org/1999/xlink" x="0px" y="0px" viewBox="0 0 1000 1000" enable-background="new 0 0 1000 1000" xml:space="preserve">
<metadata> Svg Vector Icons : http://www.onlinewebfonts.com/icon </metadata>
<g><g><g><path d="M730.2,596.9c17.9,0,33.4-2.8,46.5-8.4c13.1-5.6,23.9-12.9,32.5-21.8c8.6-9,14.9-19.2,19-30.8c4.1-11.6,6.2-23.3,6.2-35.3c0-15.7-2.6-29.1-7.8-40.3c-5.2-11.2-12.1-20.7-20.7-28.6c-8.6-7.8-17.7-14.2-27.4-19l-28-14c-11.9-5.2-21.1-9.7-27.4-13.4c-6.3-3.7-9.5-7.8-9.5-12.3c0-7.5,2.8-12.1,8.4-14c5.6-1.9,9.5-2.8,11.8-2.8c18.7,0,33.6,6.3,44.8,19c5.2,3.7,10.1,5.2,14.6,4.5c5.2,0,9.3-2.6,12.3-7.8l21.3-33.6c5.2-7.5,4.5-14.6-2.2-21.3c-23.1-23.1-53-34.7-89.6-34.7c-29.9,0-54.3,8.8-73.4,26.3c-19,17.5-28.6,39.8-28.6,66.6c0,15.7,2.6,28.7,7.8,39.2c5.2,10.5,11.9,19.4,20.2,26.9c8.2,7.5,17.2,13.6,26.9,18.5c9.7,4.9,19,9.1,28,12.9c13.4,6,23.3,11.2,29.7,15.7c6.3,4.5,9.5,9.7,9.5,15.7c0,12.7-8.6,19-25.8,19c-20.2,0-37.3-7.8-51.5-23.5c-3-3.7-7.5-5.6-13.4-5.6c-6.7,0-11.2,2.6-13.4,7.8l-22.4,34.7c-4.5,7.5-4.1,14.6,1.1,21.3C655.5,583.8,689.1,596.9,730.2,596.9z M505,596.9c17.9,0,33.6-2.8,47-8.4c13.4-5.6,24.5-12.9,33-21.8c8.6-9,14.9-19.2,19-30.8c4.1-11.6,6.2-23.3,6.2-35.3c0-15.7-2.8-29.1-8.4-40.3c-5.6-11.2-12.5-20.7-20.7-28.6c-8.2-7.8-17.4-14.2-27.4-19c-10.1-4.9-19.6-9.5-28.6-14c-11.2-5.2-20.2-9.7-26.9-13.4c-6.7-3.7-10.1-7.8-10.1-12.3c0-7.5,2.8-12.1,8.4-14c5.6-1.9,9.9-2.8,12.9-2.8c18.7,0,33.6,6.3,44.8,19c3.7,4.5,8.6,6,14.6,4.5c4.5,0,8.6-2.6,12.3-7.8l21.3-33.6c5.2-7.5,4.5-14.6-2.2-21.3c-23.1-23.1-53-34.7-89.6-34.7c-29.9,0-54.3,8.8-73.4,26.3c-19,17.5-28.6,39.8-28.6,66.6c0,15.7,2.6,28.7,7.8,39.2c5.2,10.5,11.9,19.4,20.2,26.9c8.2,7.5,17,13.6,26.3,18.5c9.3,4.9,18.5,9.1,27.4,12.9c14.2,6,24.5,11.2,30.8,15.7c6.3,4.5,9.5,9.7,9.5,15.7c0,12.7-8.6,19-25.8,19c-20.9,0-38.1-7.8-51.5-23.5c-3-3.7-7.8-5.6-14.6-5.6c-6,0-10.1,2.6-12.3,7.8l-23.5,34.7c-4.5,8.2-3.7,15.3,2.2,21.3C430,583.8,463.2,596.9,505,596.9z M378.5,524.1c2.2-4.5,2.2-9,0-13.4c-1.5-4.5-4.5-7.5-9-9l-37-16.8c-4.5-2.2-9-2.2-13.4,0c-5.2,2.2-8.2,5.6-9,10.1c-1.5,3.7-4.9,9.3-10.1,16.8c-5.2,7.5-13.1,11.2-23.5,11.2c-14.2,0-25.8-7.7-34.7-23c-9-15.3-13.4-35.3-13.4-59.9c0-24.6,4.5-44.8,13.4-60.5c9-15.7,20.5-23.5,34.7-23.5c9,0,16.1,3,21.3,9c5.2,6,9.3,11.9,12.3,17.9c2.2,4.5,5.6,7.5,10.1,9c4.5,1.5,8.6,1.5,12.3,0l37-16.8c5.2-2.2,8.2-5.6,9-10.1c1.5-5.2,1.1-9.7-1.1-13.4c-21.7-46.3-55.3-69.4-100.8-69.4c-38.1,0-68.9,14.6-92.4,43.7s-35.3,67.2-35.3,114.2c0,47,11.8,84.9,35.3,113.7c23.5,28.7,54.3,43.1,92.4,43.1C322.1,596.9,356.1,572.6,378.5,524.1z M956.4,27.9c9.7,0,17.7,3.2,24.1,9.5c6.3,6.3,9.5,14.4,9.5,24.1v703.4c0,6.7-2.1,13.1-6.2,19c-4.1,6-9.1,10.1-15.1,12.3L514,969.8c-3,1.5-7.1,2.2-12.3,2.2c-5.2,0-9.3-0.7-12.3-2.2l-457-173.6c-6.7-2.2-12.1-6.3-16.2-12.3c-4.1-6-6.2-12.3-6.2-19V61.5c0-9.7,3.4-17.7,10.1-24.1c6.7-6.3,14.6-9.5,23.5-9.5H956.4L956.4,27.9z"/></g></g><g></g><g></g><g></g><g></g><g></g><g></g><g></g><g></g><g></g><g></g><g></g><g></g><g></g><g></g><g></g></g>
</svg>