<?xml version="1.0" encoding="utf-8"?>
<!-- Svg Vector Icons : http://www.onlinewebfonts.com/icon -->
<!DOCTYPE svg PUBLIC "-//W3C//DTD SVG 1.1//EN" "http://www.w3.org/Graphics/SVG/1.1/DTD/svg11.dtd">
<svg version="1.1" xmlns="http://www.w3.org/2000/svg" xmlns:xlink="http://www.w3.org/1999/xlink" x="0px" y="0px" viewBox="0 0 1000 1000" enable-background="new 0 0 1000 1000" xml:space="preserve">
<metadata> Svg Vector Icons : http://www.onlinewebfonts.com/icon </metadata>
<g><path d="M879,360.5h-23.5V247c0-0.7-0.1-1.4-0.2-2.1c0-4.5-1.5-8.9-4.6-12.4L661.8,16.6c-0.1-0.1-0.1-0.1-0.2-0.1c-1.1-1.3-2.4-2.3-3.8-3.2c-0.4-0.3-0.8-0.5-1.3-0.7c-1.2-0.7-2.5-1.2-3.8-1.6c-0.4-0.1-0.7-0.2-1-0.3c-1.4-0.3-2.9-0.5-4.4-0.5H182.9c-21.2,0-38.4,17.2-38.4,38.4v312.1H121c-30.3,0-54.9,24.6-54.9,54.9v285.6c0,30.3,24.6,54.9,54.9,54.9h23.5v195.5c0,21.2,17.2,38.4,38.4,38.4h634.1c21.2,0,38.4-17.2,38.4-38.4V756H879c30.3,0,54.9-24.6,54.9-54.9V415.5C933.9,385.1,909.4,360.5,879,360.5z M182.9,48.4h445.2v196.6c0,10.6,8.6,19.2,19.2,19.2h169.8v96.3H182.9V48.4z M733.2,657.6h-46.4l-3.1-82.7c-0.9-26-1.9-57.4-1.9-88.8h-0.9c-6.6,27.6-15.3,58.3-23.4,83.7l-25.5,84.3h-37.1l-22.5-83.6c-6.9-25.3-14-56.1-19-84.3h-0.6c-1.3,29.2-2.2,62.5-3.7,89.4l-3.8,82h-44l13.4-216h63.3l20.6,72.1c6.6,25,13.1,51.9,17.8,77.2h0.9c5.9-25,13.1-53.5,20-77.6l22.4-71.8h62.1L733.2,657.6z M320.4,482.6v-41h161.5v41h-57.4v175h-47.7v-175H320.4z M169.1,567.2v90.4h-47.7v-216h47.7v83h78.3v-83h47.4v216h-47.4v-90.4L169.1,567.2L169.1,567.2z M817.1,941.2H182.9V756h634.1V941.2z M901,657.6H769.7v-216h47.7v175H901V657.6z"/></g>
</svg>